# xmcd CD database file
#
# Track frame offsets:
#	150
#	19420
#	42000
#	58742
#	80232
#	100259
#	123065
#	145619
#	181222
#	192883
#	207773
#	223296
#	239162
#	258372
#	278452
#	294465
#	309465
#	328674
#
# Disc length: 4640 seconds
#
# Revision: 0
# Processed by: cddbd v1.5.2PL0 Copyright (c) Steve Scherf et al.
# Submitted via: CDex 1.51
#
DISCID=0d121e12
DTITLE=Think Blues - Volume One
DYEAR=2007
DGENRE=Blues
TTITLE0=Psycho Zydeco - Get On Board
TTITLE1=Bondi Cigars - I Wont Lay Down With the Devil
TTITLE2=Pigfoot Fever - Im Bored
TTITLE3=Jan Preston - Boogie Boots
TTITLE4=Chain - Sweet Honey
TTITLE5=Blue Shaddy - Howling Dog
TTITLE6=Marshall and The Fro - Speed Ticket
TTITLE7=Bluezone - Youre the One
TTITLE8=Blind Lemon - Rock This House
TTITLE9=Black Roads - Two Sticks Road
TTITLE10=Kerri Simpson - We Will Fly Away
TTITLE11=Juzzie Smith - Do Right
TTITLE12=Doc Spand and Mathew Cang - Bullit
TTITLE13=Jimi Hocking - Old Guitar
TTITLE14=Pete Cornelius - Jellyfish
TTITLE15=Stevie Paige - The best of Me
TTITLE16=Phil Manning - Warm Me Up
TTITLE17=Steve Arvey - Faith
EXTD=YEAR: 2007
EXTT0=
EXTT1=
EXTT2=
EXTT3=
EXTT4=
EXTT5=
EXTT6=
EXTT7=
EXTT8=
EXTT9=
EXTT10=
EXTT11=
EXTT12=
EXTT13=
EXTT14=
EXTT15=
EXTT16=
EXTT17=
PLAYORDER=
